<?xml version="1.0" encoding="iso-8859-1"?>
<!-- Generator: Adobe Illustrator 19.0.0, SVG Export Plug-In . SVG Version: 6.00 Build 0)  -->
<svg version="1.1" id="Capa_1" xmlns="http://www.w3.org/2000/svg" xmlns:xlink="http://www.w3.org/1999/xlink" fill="#9499ff" x="0px" y="0px"
	 viewBox="0 0 490.1 490.1" style="enable-background:new 0 0 490.1 490.1;" xml:space="preserve">
<g>
	<g>
		<path d="M481.7,125.1L327.4,4.2c-3.1-3.1-8.3-4.2-12.5-4.2h-294C9.4,0,0,9.4,0,20.9v448.3c0,11.5,9.4,20.9,20.9,20.9h448.3
			c11.5,0,20.9-9.4,20.9-20.9V140.7C490.1,134.5,487,129.3,481.7,125.1z M335.8,62.6l94.9,74h-94.9V62.6z M40.7,449.3V40.7H294
			v115.7c0,11.5,9.4,20.9,20.9,20.9h134.5v272.1H40.7V449.3z"/>
		<path d="M324.3,318c-11.5,0-20.9,9.4-20.9,20.9v32.3h-32.3c-11.5,0-20.9,9.4-20.9,20.9s9.4,20.9,20.9,20.9h53.2
			c11.5,0,20.9-9.4,20.9-20.9v-53.2C345.2,327.4,335.8,318,324.3,318z"/>
		<path d="M186.7,286.7v-32.3H219c11.5,0,20.9-9.4,20.9-20.9s-9.4-20.9-20.9-20.9h-53.2c-11.5,0-20.9,9.4-20.9,20.9v53.2
			c0,11.5,9.4,20.9,20.9,20.9S185.7,298.2,186.7,286.7z"/>
		<path d="M328.5,229.4c-8.3-8.3-20.9-8.3-29.2,0L162.7,365.9c-8.3,8.3-8.3,20.9,0,29.2c11,11,25.1,5.1,29.2,0l136.6-136.6
			C336.8,250.2,336.8,237.7,328.5,229.4z"/>
	</g>
</g>
<g>
</g>
<g>
</g>
<g>
</g>
<g>
</g>
<g>
</g>
<g>
</g>
<g>
</g>
<g>
</g>
<g>
</g>
<g>
</g>
<g>
</g>
<g>
</g>
<g>
</g>
<g>
</g>
<g>
</g>
</svg>