<svg xmlns="http://www.w3.org/2000/svg" xmlns:xlink="http://www.w3.org/1999/xlink" version="1.1" viewBox="0.0 0.0 282.0 278.0" fill="none" stroke="none" stroke-linecap="square" stroke-miterlimit="10"><clipPath id="p.0"><path d="m0 0l282.0 0l0 278.0l-282.0 0l0 -278.0z" clip-rule="nonzero"/></clipPath><g clip-path="url(#p.0)"><path fill="#000000" fill-opacity="0.0" d="m0 0l282.8189 0l0 278.10498l-282.8189 0z" fill-rule="nonzero"/><path fill="#9900ff" d="m141.09692 6.65111l0 0c73.881714 0 133.77469 58.791286 133.77469 131.31403l0 0c0 34.826645 -14.094086 68.22687 -39.1817 92.85303c-25.087631 24.62616 -59.11374 38.460983 -94.59299 38.460983l0 0c-73.88173 0 -133.7747 -58.79129 -133.7747 -131.31401l0 0c0 -72.522736 59.892967 -131.31403 133.7747 -131.31403z" fill-rule="nonzero"/><path fill="#9900ff" d="m265.33188 174.07541c-6.5894165 -5.0289917 -37.455673 0.47146606 -47.860016 -5.6576233c-10.404358 -6.1290894 -2.9479065 -23.101944 -14.566101 -31.116913c-11.618195 -8.014954 -39.01631 -15.086983 -55.143066 -16.972862c-16.12674 -1.8858719 -30.346024 6.914871 -41.61741 5.6576233c-11.271378 -1.2572479 -20.98211 -5.1861496 -26.01088 -13.201111c-5.0287704 -8.014969 1.9074631 -26.716545 -4.161743 -34.888664c-6.069206 -8.172119 -25.143848 -11.472397 -32.25349 -14.144054c-7.109642 -2.6716537 -6.762829 -4.5575256 -10.404354 -1.8858719c-3.6415215 2.67165 -12.138411 12.572491 -11.444786 17.915798c0.6936226 5.3433075 11.618195 5.5004654 15.606529 14.144051c3.9883347 8.643593 6.762829 27.34517 8.3234825 37.71747c1.5606499 10.372314 -5.8958015 19.958832 1.040432 24.516357c6.9362373 4.557541 30.346031 -0.9429321 40.576973 2.8288116c10.230949 3.771759 10.577759 18.072952 20.808708 19.801682c10.230949 1.728714 29.13218 -6.914871 40.576973 -9.429367c11.444794 -2.514511 21.502335 -11.000931 28.091751 -5.6576233c6.589432 5.3433075 6.069214 29.859665 11.444794 37.71747c5.37558 7.8578033 12.65863 9.743683 20.8087 9.429367c8.15007 -0.3143158 20.115082 -9.272217 28.091751 -11.315247c7.9766693 -2.0430298 15.086304 3.300293 19.768265 -0.9429321c4.6819763 -4.24321 14.912903 -19.487366 8.323486 -24.516357z" fill-rule="nonzero"/><path fill="#a4c2f4" d="m250.95335 199.1403c-6.5892487 -5.0289917 -37.45407 0.4710846 -47.858276 -5.658081c-10.40419 -6.1291504 -2.948822 -23.101685 -14.566925 -31.116867c-11.618118 -8.0151825 -39.015747 -15.088196 -55.14174 -16.974213c-16.125977 -1.8860321 -30.343391 6.9154205 -41.614166 5.658066c-11.270782 -1.2573547 -20.981628 -5.186981 -26.010498 -13.202164c-5.0288734 -8.0151825 1.9063873 -26.716576 -4.162731 -34.888924c-6.0691185 -8.172348 -25.142609 -11.473312 -32.25197 -14.14518c-7.1093616 -2.6718674 -7.343832 -5.845413 -10.4042 -1.8860245c-3.0603676 3.9593964 -8.6517935 20.298645 -7.958006 25.64238c0.6937885 5.3437347 8.713474 -0.9363022 12.120735 6.4200287c3.407261 7.3563232 6.7624664 27.345665 8.322834 37.71795c1.5603676 10.372299 -5.896763 19.958328 1.0393715 24.515793c6.9361305 4.55748 30.346893 -0.9430084 40.577427 2.8290405c10.230537 3.772049 10.575241 18.074387 20.80577 19.803253c10.230537 1.7288513 29.132988 -6.9154205 40.57744 -9.43013c11.444443 -2.5146942 21.5 -11.001373 28.089233 -5.658066c6.5892334 5.3433228 6.0704346 29.85994 11.4461975 37.717957c5.375763 7.858017 12.658783 9.744461 20.808395 9.430115c8.149612 -0.31433105 20.112854 -9.272949 28.089233 -11.316132c7.9763794 -2.0431976 15.087051 3.3001251 19.769028 -0.9430237c4.6819763 -4.2431335 14.912094 -19.486801 8.322845 -24.515778z" fill-rule="nonzero"/><path fill="#d671d0" d="m261.81686 182.41252c-6.5892334 -5.0289764 -37.45407 0.4710846 -47.85826 -5.658066c-10.404205 -6.1291656 -2.948822 -23.1017 -14.56694 -31.116882c-11.618103 -8.0151825 -39.015747 -15.088181 -55.141724 -16.974213c-16.125992 -1.8860168 -30.3434 6.9154205 -41.614174 5.658081c-11.270782 -1.2573547 -20.981628 -5.186981 -26.010498 -13.202171c-5.0288773 -8.0151825 1.9063873 -26.716568 -4.162735 -34.888924c-6.0691147 -8.172348 -24.926506 -11.305664 -32.251965 -14.145172c-7.3254585 -2.8395157 -8.059494 -5.563774 -11.7007885 -2.8919067c-3.6412945 2.6718674 -11.056868 13.411728 -10.146982 18.923103c0.9098873 5.511383 11.618111 5.50132 15.6063 14.14518c3.9881897 8.643852 6.7624664 27.345673 8.322834 37.717957c1.5603676 10.372299 -5.896763 19.958328 1.0393715 24.515793c6.9361305 4.5574646 30.34689 -0.9430084 40.577427 2.8290405c10.23053 3.772049 10.575241 18.074387 20.80577 19.803238c10.230537 1.7288666 29.132988 -6.9154205 40.57743 -9.430115c11.444443 -2.5146942 21.5 -11.001389 28.089233 -5.658066c6.5892487 5.3433075 6.0704346 29.85994 11.4461975 37.717957c5.375763 7.858017 12.658798 9.744461 20.808395 9.430115c8.149612 -0.31433105 20.11287 -9.272949 28.089249 -11.316147c7.9763794 -2.0431824 15.087051 3.3001251 19.769028 -0.9430084c4.681961 -4.2431335 14.912064 -19.486816 8.32283 -24.515793z" fill-rule="nonzero"/></g></svg>